<svg xmlns="http://www.w3.org/2000/svg" viewBox="0 0 512 512">
  <rect width="512" height="512" rx="108" fill="#080c12"/>
  <!-- Brain arcs -->
  <path d="M176 296 C176 168, 256 120, 256 120 C256 120, 336 168, 336 296" stroke="#3a86ff" stroke-width="14" fill="none" stroke-linecap="round"/>
  <line x1="256" y1="132" x2="256" y2="284" stroke="#3a86ff" stroke-width="6" opacity="0.4" stroke-linecap="round"/>
  <!-- Neural connections -->
  <line x1="192" y1="244" x2="280" y2="184" stroke="#3a86ff" stroke-width="4" opacity="0.25"/>
  <line x1="280" y1="184" x2="256" y2="312" stroke="#3a86ff" stroke-width="4" opacity="0.25"/>
  <line x1="256" y1="312" x2="192" y2="244" stroke="#3a86ff" stroke-width="4" opacity="0.25"/>
  <!-- Nodes -->
  <circle cx="192" cy="244" r="20" fill="#00c97b"/>
  <circle cx="192" cy="244" r="7" fill="#080c12"/>
  <circle cx="280" cy="184" r="20" fill="#00c97b"/>
  <circle cx="280" cy="184" r="7" fill="#080c12"/>
  <circle cx="256" cy="312" r="22" fill="#f59e0b"/>
  <circle cx="256" cy="312" r="8" fill="#080c12"/>
  <!-- Micro dots -->
  <circle cx="208" cy="168" r="5" fill="#3a86ff" opacity="0.5"/>
  <circle cx="312" cy="200" r="5" fill="#3a86ff" opacity="0.5"/>
  <circle cx="320" cy="268" r="5" fill="#3a86ff" opacity="0.5"/>
</svg>
